<svg width="32" height="32" viewBox="0 0 16 16" fill="none" xmlns="http://www.w3.org/2000/svg">
  <path d="M7.99984 11.3333C8.36803 11.3333 8.6665 11.0348 8.6665 10.6666C8.6665 10.2984 8.36803 9.99992 7.99984 9.99992C7.63165 9.99992 7.33317 10.2984 7.33317 10.6666C7.33317 11.0348 7.63165 11.3333 7.99984 11.3333Z" fill="#6A778A"/>
  <path fill-rule="evenodd" clip-rule="evenodd" d="M4.6665 4.66659V6.66659H3.99984C3.26346 6.66659 2.6665 7.26354 2.6665 7.99992V13.3333C2.6665 14.0696 3.26346 14.6666 3.99984 14.6666H11.9998C12.7362 14.6666 13.3332 14.0696 13.3332 13.3333V7.99992C13.3332 7.26354 12.7362 6.66659 11.9998 6.66659H11.3332V4.66659C11.3332 2.82564 9.84079 1.33325 7.99984 1.33325C6.15889 1.33325 4.6665 2.82564 4.6665 4.66659ZM7.99984 2.66659C6.89527 2.66659 5.99984 3.56202 5.99984 4.66659V6.66659H9.99984V4.66659C9.99984 3.56202 9.10441 2.66659 7.99984 2.66659ZM3.99984 7.99992V13.3333H11.9998V7.99992H3.99984Z" fill="#6A778A"/>
</svg>
