<svg width="32" height="32" viewBox="0 0 16 16" fill="none" xmlns="http://www.w3.org/2000/svg">
  <path d="M8.00016 2.66659C5.05814 2.66659 2.66683 5.06591 2.66683 8.03347C2.66683 8.87502 2.85884 9.66947 3.20045 10.3766C3.36061 10.7081 3.22169 11.1067 2.89016 11.2669C2.55863 11.427 2.16004 11.2881 1.99988 10.9566C1.57269 10.0723 1.3335 9.07999 1.3335 8.03347C1.3335 4.33655 4.31476 1.33325 8.00016 1.33325C11.6856 1.33325 14.6668 4.33655 14.6668 8.03347C14.6668 9.07999 14.4276 10.0723 14.0005 10.9566C13.8403 11.2881 13.4417 11.427 13.1102 11.2669C12.7786 11.1067 12.6397 10.7081 12.7999 10.3766C13.1415 9.66947 13.3335 8.87502 13.3335 8.03347C13.3335 5.06591 10.9422 2.66659 8.00016 2.66659Z" fill="#6A778A"/>
  <path fill-rule="evenodd" clip-rule="evenodd" d="M9.67449 10.8829C10.6666 10.3054 11.3335 9.23056 11.3335 7.99992C11.3335 6.15897 9.84111 4.66659 8.00016 4.66659C6.15921 4.66659 4.66683 6.15897 4.66683 7.99992C4.66683 9.23056 5.33372 10.3054 6.32583 10.8829C5.3054 11.1594 4.52473 11.6632 3.9585 12.1697C3.53995 12.544 3.2393 12.9186 3.04172 13.2021C2.94268 13.3443 2.86875 13.4647 2.81819 13.5524C2.79288 13.5963 2.77336 13.6322 2.7594 13.6586C2.75242 13.6718 2.74682 13.6827 2.74259 13.691L2.73724 13.7017L2.73533 13.7056L2.73456 13.7071L2.73422 13.7078C2.73407 13.7081 2.73392 13.7085 3.3335 13.9999L2.73392 13.7085C2.57295 14.0396 2.7109 14.4385 3.04203 14.5995C3.37227 14.76 3.76994 14.6233 3.93176 14.2941L3.93214 14.2933L3.93835 14.2814C3.94503 14.2687 3.95665 14.2473 3.97337 14.2183C4.00686 14.1601 4.06054 14.0722 4.13569 13.9644C4.28649 13.7479 4.52056 13.4558 4.84738 13.1635C5.49464 12.5846 6.50867 11.9999 8.00016 11.9999C9.49166 11.9999 10.5057 12.5846 11.1529 13.1635C11.4798 13.4558 11.7138 13.7479 11.8646 13.9644C11.9398 14.0722 11.9935 14.1601 12.027 14.2183C12.0437 14.2473 12.0553 14.2687 12.062 14.2814L12.0682 14.2933L12.0686 14.2941C12.2304 14.6233 12.628 14.76 12.9583 14.5995C13.2894 14.4385 13.4274 14.0396 13.2664 13.7085L12.6668 13.9999C13.2664 13.7085 13.2663 13.7081 13.2661 13.7078L13.265 13.7056L13.2631 13.7017L13.2577 13.691C13.2535 13.6827 13.2479 13.6718 13.2409 13.6586C13.227 13.6322 13.2074 13.5963 13.1821 13.5524C13.1316 13.4647 13.0576 13.3443 12.9586 13.2021C12.761 12.9186 12.4604 12.544 12.0418 12.1697C11.4756 11.6632 10.6949 11.1594 9.67449 10.8829ZM8.00016 9.99992C9.10473 9.99992 10.0002 9.10449 10.0002 7.99992C10.0002 6.89535 9.10473 5.99992 8.00016 5.99992C6.89559 5.99992 6.00016 6.89535 6.00016 7.99992C6.00016 9.10449 6.89559 9.99992 8.00016 9.99992Z" fill="#6A778A"/>
</svg>
